<svg id="visual" viewBox="0 0 900 600" width="900" height="600" xmlns="http://www.w3.org/2000/svg" xmlns:xlink="http://www.w3.org/1999/xlink" version="1.1"><rect x="0" y="0" width="900" height="600" fill="#FF0066"></rect><g transform="translate(888.0096410964261 -15.989394624115533)"><path d="M191.3 -332.2C251.3 -296.7 305.8 -252.3 348 -195.5C390.2 -138.7 420.1 -69.3 423 1.7C425.9 72.7 401.7 145.3 364.1 210.1C326.6 274.9 275.5 331.9 212.6 370.2C149.7 408.6 74.8 428.3 0 428.3C-74.8 428.3 -149.7 408.6 -212.2 370C-274.7 331.4 -324.8 273.9 -356.9 209.1C-389 144.3 -403 72.2 -398.4 2.7C-393.8 -66.8 -370.5 -133.7 -334.9 -192.4C-299.4 -251.2 -251.4 -301.8 -193.5 -338.6C-135.7 -375.3 -67.8 -398.2 -1.1 -396.2C65.6 -394.3 131.3 -367.7 191.3 -332.2" fill="#BB004B"></path></g></svg>