<svg id="visual" viewBox="0 0 900 600" width="900" height="600" xmlns="http://www.w3.org/2000/svg" xmlns:xlink="http://www.w3.org/1999/xlink" version="1.1"><rect x="0" y="0" width="900" height="600" fill="#b900ff"></rect><g transform="translate(448.38612775347787 316.3905494419903)"><path d="M69.9 -138C86.1 -111.7 91.8 -84 101.5 -60.7C111.3 -37.5 125.1 -18.8 132.3 4.1C139.4 27 139.9 54 133.7 83.4C127.5 112.9 114.8 144.8 91.4 159.1C68 173.4 34 170.2 2.2 166.5C-29.7 162.7 -59.3 158.4 -80.7 142.9C-102.1 127.4 -115.1 100.7 -123.4 75C-131.8 49.3 -135.4 24.7 -134.7 0.4C-133.9 -23.8 -128.9 -47.7 -124.5 -80.1C-120.1 -112.6 -116.3 -153.7 -95.6 -177.5C-75 -201.2 -37.5 -207.6 -5.3 -198.4C26.8 -189.1 53.7 -164.3 69.9 -138" fill="#5a00ba"></path></g></svg>