<svg id="visual" viewBox="0 0 1600 900" width="1600" height="900" xmlns="http://www.w3.org/2000/svg" xmlns:xlink="http://www.w3.org/1999/xlink" version="1.1"><rect x="0" y="0" width="1600" height="900" fill="#b900ff"></rect><g transform="translate(790.5888719522598 503.4837034016792)"><path d="M181.6 -331.5C231.8 -285.5 266.6 -229.7 286.9 -172.9C307.3 -116 313.1 -58 316.2 1.7C319.2 61.5 319.4 123 294.6 172.2C269.9 221.4 220.2 258.4 166.9 265.1C113.7 271.9 56.8 248.4 -4.6 256.4C-66 264.3 -132 303.6 -174.6 290.7C-217.2 277.8 -236.3 212.6 -255.8 155.5C-275.3 98.3 -295.2 49.2 -298.3 -1.8C-301.5 -52.8 -288 -105.7 -257.8 -144.2C-227.5 -182.7 -180.5 -207 -134.8 -255.6C-89 -304.2 -44.5 -377.1 10.6 -395.4C65.7 -413.7 131.3 -377.5 181.6 -331.5" fill="#5a00ba"></path></g></svg>