<svg id="visual" viewBox="0 0 900 600" width="900" height="600" xmlns="http://www.w3.org/2000/svg" xmlns:xlink="http://www.w3.org/1999/xlink" version="1.1"><rect x="0" y="0" width="900" height="600" fill="#715DF2"></rect><path d="M0 521L15 520.3C30 519.7 60 518.3 90 493.5C120 468.7 150 420.3 180 411.7C210 403 240 434 270 441.3C300 448.7 330 432.3 360 436.7C390 441 420 466 450 481.2C480 496.3 510 501.7 540 484.3C570 467 600 427 630 406.3C660 385.7 690 384.3 720 395.8C750 407.3 780 431.7 810 434.8C840 438 870 420 885 411L900 402L900 601L885 601C870 601 840 601 810 601C780 601 750 601 720 601C690 601 660 601 630 601C600 601 570 601 540 601C510 601 480 601 450 601C420 601 390 601 360 601C330 601 300 601 270 601C240 601 210 601 180 601C150 601 120 601 90 601C60 601 30 601 15 601L0 601Z" fill="#6600FF" stroke-linecap="round" stroke-linejoin="miter"></path></svg>